<svg xmlns="http://www.w3.org/2000/svg" xmlns:xlink="http://www.w3.org/1999/xlink" width="100" zoomAndPan="magnify" viewBox="0 0 75 74.999997" height="100" preserveAspectRatio="xMidYMid meet" version="1.0"><defs><clipPath id="28d74ab169"><path d="M 4.898438 4.898438 L 70.101562 4.898438 L 70.101562 70.101562 L 4.898438 70.101562 Z M 4.898438 4.898438 " clip-rule="nonzero"/></clipPath><clipPath id="a448c82704"><path d="M 37.5 4.898438 C 19.496094 4.898438 4.898438 19.496094 4.898438 37.5 C 4.898438 55.503906 19.496094 70.101562 37.5 70.101562 C 55.503906 70.101562 70.101562 55.503906 70.101562 37.5 C 70.101562 19.496094 55.503906 4.898438 37.5 4.898438 Z M 37.5 4.898438 " clip-rule="nonzero"/></clipPath><clipPath id="c0b7ef87d1"><path d="M 39 19.09375 L 53 19.09375 L 53 32 L 39 32 Z M 39 19.09375 " clip-rule="nonzero"/></clipPath><clipPath id="4787d6c35f"><path d="M 22 19.09375 L 47 19.09375 L 47 32 L 22 32 Z M 22 19.09375 " clip-rule="nonzero"/></clipPath><clipPath id="7e089ff221"><path d="M 27 19.09375 L 41 19.09375 L 41 29 L 27 29 Z M 27 19.09375 " clip-rule="nonzero"/></clipPath><clipPath id="6a80747bd2"><path d="M 35 30 L 47 30 L 47 55.84375 L 35 55.84375 Z M 35 30 " clip-rule="nonzero"/></clipPath><clipPath id="1a0cf1600e"><path d="M 37 44 L 42 44 L 42 55.84375 L 37 55.84375 Z M 37 44 " clip-rule="nonzero"/></clipPath><clipPath id="3500034e74"><path d="M 39 44 L 43 44 L 43 55.84375 L 39 55.84375 Z M 39 44 " clip-rule="nonzero"/></clipPath><clipPath id="d327f6aedd"><path d="M 31 44 L 53.800781 44 L 53.800781 46 L 31 46 Z M 31 44 " clip-rule="nonzero"/></clipPath></defs><g clip-path="url(#28d74ab169)"><g clip-path="url(#a448c82704)"><path fill="#000000" d="M 4.898438 4.898438 L 70.101562 4.898438 L 70.101562 70.101562 L 4.898438 70.101562 Z M 4.898438 4.898438 " fill-opacity="1" fill-rule="nonzero"/></g></g><g clip-path="url(#c0b7ef87d1)"><path fill="#ffffff" d="M 45.984375 19.164062 C 47.703125 19.164062 49.261719 19.859375 50.386719 20.988281 C 51.515625 22.113281 52.210938 23.671875 52.210938 25.390625 C 52.210938 27.109375 51.515625 28.667969 50.386719 29.796875 C 49.261719 30.921875 47.703125 31.621094 45.984375 31.621094 C 44.261719 31.621094 42.707031 30.921875 41.578125 29.796875 C 40.453125 28.667969 39.753906 27.109375 39.753906 25.390625 C 39.753906 23.671875 40.453125 22.113281 41.578125 20.988281 C 42.707031 19.859375 44.261719 19.164062 45.984375 19.164062 Z M 49.660156 21.714844 C 48.71875 20.773438 47.417969 20.191406 45.984375 20.191406 C 44.546875 20.191406 43.246094 20.773438 42.308594 21.714844 C 41.367188 22.65625 40.785156 23.957031 40.785156 25.390625 C 40.785156 26.828125 41.367188 28.125 42.308594 29.066406 C 43.246094 30.007812 44.546875 30.589844 45.984375 30.589844 C 47.417969 30.589844 48.71875 30.007812 49.660156 29.066406 C 50.597656 28.125 51.179688 26.828125 51.179688 25.390625 C 51.179688 23.957031 50.597656 22.65625 49.660156 21.714844 Z M 49.660156 21.714844 " fill-opacity="1" fill-rule="nonzero"/></g><path fill="#ffffff" d="M 45.984375 21.480469 C 47.0625 21.480469 48.039062 21.917969 48.746094 22.625 C 49.457031 23.332031 49.894531 24.3125 49.894531 25.390625 C 49.894531 26.46875 49.457031 27.449219 48.746094 28.15625 C 48.039062 28.863281 47.0625 29.300781 45.984375 29.300781 C 44.902344 29.300781 43.925781 28.863281 43.21875 28.15625 C 42.511719 27.449219 42.074219 26.46875 42.074219 25.390625 C 42.074219 24.3125 42.511719 23.332031 43.21875 22.625 C 43.925781 21.917969 44.902344 21.480469 45.984375 21.480469 Z M 48.019531 23.355469 C 47.5 22.832031 46.777344 22.511719 45.984375 22.511719 C 45.1875 22.511719 44.46875 22.832031 43.945312 23.355469 C 43.425781 23.875 43.101562 24.59375 43.101562 25.390625 C 43.101562 26.1875 43.425781 26.90625 43.945312 27.425781 C 44.46875 27.949219 45.1875 28.269531 45.984375 28.269531 C 46.777344 28.269531 47.5 27.949219 48.019531 27.425781 C 48.539062 26.90625 48.863281 26.1875 48.863281 25.390625 C 48.863281 24.59375 48.539062 23.875 48.019531 23.355469 Z M 48.019531 23.355469 " fill-opacity="1" fill-rule="nonzero"/><path fill="#ffffff" d="M 45.984375 24.3125 C 46.578125 24.3125 47.058594 24.796875 47.058594 25.390625 C 47.058594 25.984375 46.578125 26.46875 45.984375 26.46875 C 45.386719 26.46875 44.90625 25.984375 44.90625 25.390625 C 44.90625 24.796875 45.386719 24.3125 45.984375 24.3125 Z M 45.984375 24.3125 " fill-opacity="1" fill-rule="evenodd"/><g clip-path="url(#4787d6c35f)"><path fill="#ffffff" d="M 45.984375 30.589844 C 46.265625 30.589844 46.5 30.820312 46.5 31.105469 C 46.5 31.386719 46.265625 31.621094 45.984375 31.621094 L 22.542969 31.621094 C 22.261719 31.621094 22.03125 31.386719 22.03125 31.105469 L 22.03125 31.101562 C 21.992188 30.425781 21.554688 19.164062 34.765625 19.164062 L 45.984375 19.164062 C 46.265625 19.164062 46.5 19.394531 46.5 19.675781 C 46.5 19.960938 46.265625 20.191406 45.984375 20.191406 L 34.765625 20.191406 C 23.84375 20.191406 23.070312 28.476562 23.046875 30.589844 Z M 45.984375 30.589844 " fill-opacity="1" fill-rule="nonzero"/></g><path fill="#ffffff" d="M 22.976562 31.382812 C 22.820312 31.621094 22.503906 31.6875 22.265625 31.535156 C 22.027344 31.378906 21.960938 31.0625 22.113281 30.824219 C 22.121094 30.816406 24.265625 27.429688 29.519531 27.429688 L 40.871094 27.429688 C 41.15625 27.429688 41.386719 27.660156 41.386719 27.945312 C 41.386719 28.230469 41.15625 28.460938 40.871094 28.460938 L 29.519531 28.460938 C 24.828125 28.460938 22.980469 31.375 22.976562 31.382812 Z M 22.976562 31.382812 " fill-opacity="1" fill-rule="nonzero"/><path fill="#ffffff" d="M 27.722656 21.191406 C 27.617188 20.929688 27.746094 20.628906 28.007812 20.519531 C 28.269531 20.414062 28.570312 20.542969 28.679688 20.804688 C 28.683594 20.816406 30.175781 24.425781 28.828125 28.179688 C 28.734375 28.445312 28.441406 28.585938 28.175781 28.488281 C 27.90625 28.394531 27.769531 28.101562 27.863281 27.832031 C 29.078125 24.457031 27.726562 21.199219 27.722656 21.191406 Z M 27.722656 21.191406 " fill-opacity="1" fill-rule="nonzero"/><g clip-path="url(#7e089ff221)"><path fill="#ffffff" d="M 33.289062 19.617188 C 33.332031 19.339844 33.59375 19.148438 33.875 19.191406 C 34.15625 19.238281 34.347656 19.5 34.300781 19.78125 C 33.792969 22.972656 32.15625 25.253906 30.769531 26.671875 C 33.445312 25.605469 37.476562 23.414062 39.015625 19.488281 C 39.117188 19.226562 39.417969 19.09375 39.679688 19.199219 C 39.945312 19.300781 40.078125 19.601562 39.972656 19.863281 C 37.386719 26.453125 28.492188 28.5 28.464844 28.507812 C 28.253906 28.554688 28.023438 28.46875 27.90625 28.269531 C 27.761719 28.027344 27.839844 27.710938 28.082031 27.566406 C 28.097656 27.558594 32.425781 25.011719 33.289062 19.617188 Z M 33.289062 19.617188 " fill-opacity="1" fill-rule="nonzero"/></g><path fill="#ffffff" d="M 28.398438 28.515625 C 28.117188 28.546875 27.863281 28.339844 27.835938 28.058594 C 27.808594 27.777344 28.011719 27.523438 28.292969 27.496094 C 28.316406 27.492188 36.144531 26.683594 40.058594 24.921875 C 40.316406 24.804688 40.621094 24.921875 40.738281 25.179688 C 40.855469 25.4375 40.738281 25.742188 40.480469 25.859375 C 36.417969 27.6875 28.421875 28.515625 28.398438 28.515625 Z M 28.398438 28.515625 " fill-opacity="1" fill-rule="nonzero"/><g clip-path="url(#6a80747bd2)"><path fill="#ffffff" d="M 45.949219 30.589844 C 46.234375 30.582031 46.472656 30.800781 46.480469 31.085938 C 46.492188 31.371094 46.269531 31.605469 45.984375 31.617188 C 45.960938 31.617188 36.796875 31.894531 36.796875 39.09375 L 36.796875 54.214844 C 37.917969 52.949219 39.609375 50.023438 37.734375 45.039062 C 37.636719 44.773438 37.769531 44.480469 38.035156 44.378906 C 38.300781 44.277344 38.597656 44.414062 38.699219 44.679688 C 41.449219 52.003906 37.097656 55.429688 36.621094 55.777344 C 36.53125 55.855469 36.414062 55.902344 36.285156 55.902344 C 36 55.902344 35.769531 55.671875 35.769531 55.386719 L 35.769531 39.09375 C 35.769531 30.898438 45.921875 30.59375 45.949219 30.589844 Z M 45.949219 30.589844 " fill-opacity="1" fill-rule="nonzero"/></g><path fill="#ffffff" d="M 36.285156 45.375 C 36 45.375 35.769531 45.144531 35.769531 44.859375 C 35.769531 44.574219 36 44.34375 36.285156 44.34375 L 39.046875 44.34375 C 39.066406 44.34375 39.082031 44.34375 39.101562 44.347656 C 39.894531 44.363281 51.179688 44.46875 51.179688 36.4375 L 51.179688 25.390625 C 51.179688 25.105469 51.410156 24.875 51.695312 24.875 C 51.980469 24.875 52.210938 25.105469 52.210938 25.390625 L 52.210938 36.4375 C 52.210938 45.515625 39.890625 45.390625 39.074219 45.375 C 39.066406 45.375 39.054688 45.375 39.046875 45.375 Z M 36.285156 45.375 " fill-opacity="1" fill-rule="nonzero"/><g clip-path="url(#1a0cf1600e)"><path fill="#ffffff" d="M 37.527344 53.339844 C 37.527344 53.054688 37.761719 52.824219 38.042969 52.824219 C 38.328125 52.824219 38.558594 53.054688 38.558594 53.339844 L 38.558594 53.671875 C 39.640625 52.148438 41.027344 49.199219 39.367188 45.050781 C 39.261719 44.789062 39.390625 44.488281 39.652344 44.382812 C 39.914062 44.277344 40.214844 44.40625 40.320312 44.667969 C 42.753906 50.753906 39.277344 54.523438 38.476562 55.390625 L 38.445312 55.425781 C 38.351562 55.542969 38.207031 55.617188 38.042969 55.617188 C 37.761719 55.617188 37.527344 55.386719 37.527344 55.101562 Z M 37.527344 53.339844 " fill-opacity="1" fill-rule="nonzero"/></g><g clip-path="url(#3500034e74)"><path fill="#ffffff" d="M 39.011719 53.152344 C 39.011719 52.871094 39.242188 52.640625 39.527344 52.640625 C 39.8125 52.640625 40.042969 52.871094 40.042969 53.152344 L 40.042969 53.613281 C 41.078125 52.433594 42.578125 49.738281 41.132812 44.875 C 41.050781 44.605469 41.207031 44.316406 41.476562 44.234375 C 41.75 44.15625 42.035156 44.308594 42.117188 44.582031 C 44.292969 51.882812 40.253906 54.898438 39.84375 55.183594 C 39.757812 55.25 39.648438 55.289062 39.527344 55.289062 C 39.242188 55.289062 39.011719 55.058594 39.011719 54.777344 Z M 39.011719 53.152344 " fill-opacity="1" fill-rule="nonzero"/></g><path fill="#ffffff" d="M 43.554688 31.214844 C 45.421875 31.214844 47.109375 31.972656 48.332031 33.195312 C 49.558594 34.417969 50.3125 36.109375 50.3125 37.976562 C 50.3125 39.84375 49.558594 41.53125 48.332031 42.757812 C 47.109375 43.980469 45.417969 44.738281 43.554688 44.738281 C 41.6875 44.738281 39.996094 43.980469 38.773438 42.757812 C 37.550781 41.53125 36.792969 39.84375 36.792969 37.976562 C 36.792969 36.109375 37.550781 34.417969 38.773438 33.195312 C 39.996094 31.972656 41.6875 31.214844 43.554688 31.214844 Z M 47.605469 33.921875 C 46.566406 32.886719 45.136719 32.246094 43.554688 32.246094 C 41.96875 32.246094 40.539062 32.886719 39.5 33.921875 C 38.464844 34.960938 37.824219 36.394531 37.824219 37.976562 C 37.824219 39.558594 38.464844 40.992188 39.5 42.027344 C 40.539062 43.066406 41.96875 43.707031 43.554688 43.707031 C 45.136719 43.707031 46.566406 43.066406 47.605469 42.027344 C 48.640625 40.992188 49.285156 39.558594 49.285156 37.976562 C 49.285156 36.394531 48.640625 34.960938 47.605469 33.921875 Z M 47.605469 33.921875 " fill-opacity="1" fill-rule="nonzero"/><path fill="#ffffff" d="M 43.554688 33.53125 C 44.78125 33.53125 45.890625 34.03125 46.695312 34.835938 C 47.5 35.636719 47.996094 36.75 47.996094 37.976562 C 47.996094 39.203125 47.5 40.3125 46.695312 41.117188 C 45.890625 41.921875 44.78125 42.417969 43.554688 42.417969 C 42.328125 42.417969 41.214844 41.921875 40.410156 41.117188 C 39.609375 40.3125 39.109375 39.203125 39.109375 37.976562 C 39.109375 36.75 39.609375 35.636719 40.410156 34.835938 C 41.214844 34.03125 42.328125 33.53125 43.554688 33.53125 Z M 45.964844 35.5625 C 45.347656 34.945312 44.496094 34.5625 43.554688 34.5625 C 42.609375 34.5625 41.757812 34.945312 41.140625 35.5625 C 40.523438 36.179688 40.140625 37.035156 40.140625 37.976562 C 40.140625 38.917969 40.523438 39.769531 41.140625 40.386719 C 41.757812 41.007812 42.609375 41.386719 43.554688 41.386719 C 44.496094 41.386719 45.347656 41.007812 45.964844 40.386719 C 46.582031 39.769531 46.964844 38.917969 46.964844 37.976562 C 46.964844 37.035156 46.582031 36.179688 45.964844 35.5625 Z M 45.964844 35.5625 " fill-opacity="1" fill-rule="nonzero"/><path fill="#ffffff" d="M 43.554688 36.367188 C 44.441406 36.367188 45.160156 37.085938 45.160156 37.976562 C 45.160156 38.863281 44.441406 39.585938 43.554688 39.585938 C 42.664062 39.585938 41.945312 38.863281 41.945312 37.976562 C 41.945312 37.085938 42.664062 36.367188 43.554688 36.367188 Z M 43.554688 36.367188 " fill-opacity="1" fill-rule="evenodd"/><path fill="#ffffff" d="M 36.285156 43.636719 C 36 43.636719 35.769531 43.40625 35.769531 43.121094 C 35.769531 42.835938 36 42.605469 36.285156 42.605469 L 40.011719 42.605469 C 40.296875 42.605469 40.527344 42.835938 40.527344 43.121094 C 40.527344 43.40625 40.296875 43.636719 40.011719 43.636719 Z M 36.285156 43.636719 " fill-opacity="1" fill-rule="nonzero"/><path fill="#ffffff" d="M 50.3125 37.976562 C 50.3125 38.261719 50.082031 38.492188 49.796875 38.492188 C 49.515625 38.492188 49.285156 38.261719 49.285156 37.976562 L 49.285156 29.644531 C 49.285156 29.359375 49.515625 29.128906 49.796875 29.128906 C 50.082031 29.128906 50.3125 29.359375 50.3125 29.644531 Z M 50.3125 37.976562 " fill-opacity="1" fill-rule="nonzero"/><g clip-path="url(#d327f6aedd)"><path fill="#ffffff" d="M 32.0625 45.375 C 31.777344 45.375 31.546875 45.144531 31.546875 44.859375 C 31.546875 44.574219 31.777344 44.34375 32.0625 44.34375 L 52.929688 44.34375 C 53.214844 44.34375 53.445312 44.574219 53.445312 44.859375 C 53.445312 45.144531 53.214844 45.375 52.929688 45.375 Z M 32.0625 45.375 " fill-opacity="1" fill-rule="nonzero"/></g></svg>